<?xml version="1.0" encoding="UTF-8"?>
<svg xmlns="http://www.w3.org/2000/svg" xmlns:xlink="http://www.w3.org/1999/xlink" width="128pt" height="128pt" viewBox="0 0 128 128" version="1.1">
<defs>
<radialGradient id="radial0" gradientUnits="userSpaceOnUse" cx="87.34375" cy="84.65625" fx="87.34375" fy="84.65625" r="82.01175" gradientTransform="matrix(0.744186,0,0,0.744186,0,0)">
<stop offset="0" style="stop-color:rgb(68.627451%,93.333333%,100%);stop-opacity:1;"/>
<stop offset="0.193" style="stop-color:rgb(73.333333%,94.509804%,100%);stop-opacity:1;"/>
<stop offset="0.703" style="stop-color:rgb(84.313725%,97.254902%,100%);stop-opacity:1;"/>
<stop offset="1" style="stop-color:rgb(88.235294%,98.039216%,100%);stop-opacity:1;"/>
</radialGradient>
<linearGradient id="linear0" gradientUnits="userSpaceOnUse" x1="86" y1="172.06719" x2="86" y2="37.69219" gradientTransform="matrix(0.744186,0,0,0.744186,0,0)">
<stop offset="0" style="stop-color:rgb(8.235294%,36.078431%,87.058824%);stop-opacity:1;"/>
<stop offset="0.278" style="stop-color:rgb(12.156863%,49.803922%,89.803922%);stop-opacity:1;"/>
<stop offset="0.569" style="stop-color:rgb(15.294118%,61.176471%,92.156863%);stop-opacity:1;"/>
<stop offset="0.82" style="stop-color:rgb(17.254902%,68.627451%,93.72549%);stop-opacity:1;"/>
<stop offset="1" style="stop-color:rgb(18.039216%,70.980392%,94.117647%);stop-opacity:1;"/>
</linearGradient>
</defs>
<g id="surface178468">
<path style=" stroke:none;fill-rule:nonzero;fill:url(#radial0);" d="M 118 40 L 121 40 C 125.335938 40 128.785156 36.003906 127.84375 31.515625 C 127.160156 28.242188 124.113281 26 120.769531 26 L 106 26 C 103.789062 26 102 24.210938 102 22 C 102 19.789062 103.789062 18 106 18 L 112.769531 18 C 116.109375 18 119.160156 15.757812 119.84375 12.484375 C 120.785156 7.996094 117.335938 4 113 4 L 17 4 C 13.148438 4 10 7.148438 10 11 C 10 14.851562 13.148438 18 17 18 L 20 18 C 22.210938 18 24 19.789062 24 22 C 24 24.210938 22.210938 26 20 26 L 9.230469 26 C 5.890625 26 2.839844 28.242188 2.15625 31.515625 C 1.214844 36.003906 4.664062 40 9 40 L 36 40 L 36 64 L 9.230469 64 C 5.890625 64 2.839844 66.242188 2.15625 69.515625 C 1.214844 74.003906 4.664062 78 9 78 L 10 78 C 12.210938 78 14 79.789062 14 82 C 14 84.210938 12.210938 86 10 86 L 9 86 C 4.664062 86 1.214844 89.996094 2.15625 94.484375 C 2.839844 97.757812 5.890625 100 9.230469 100 L 20 100 C 22.210938 100 24 101.789062 24 104 C 24 106.210938 22.210938 108 20 108 L 17.230469 108 C 13.890625 108 10.839844 110.242188 10.15625 113.515625 C 9.214844 118.003906 12.664062 122 17 122 L 111 122 C 114.851562 122 118 118.851562 118 115 C 118 111.148438 114.851562 108 111 108 L 110 108 C 107.789062 108 106 106.210938 106 104 C 106 101.789062 107.789062 100 110 100 L 118.769531 100 C 122.109375 100 125.160156 97.757812 125.84375 94.484375 C 126.785156 89.996094 123.335938 86 119 86 L 94 86 L 94 62 L 118.769531 62 C 122.109375 62 125.160156 59.757812 125.84375 56.484375 C 126.785156 51.996094 123.335938 48 119 48 L 118 48 C 115.789062 48 114 46.210938 114 44 C 114 41.789062 115.789062 40 118 40 Z M 118 40 "/>
<path style=" stroke:none;fill-rule:nonzero;fill:url(#linear0);" d="M 114 62 C 114 89.609375 91.609375 112 64 112 C 36.390625 112 14 89.609375 14 62 C 14 34.390625 36.390625 12 64 12 C 91.609375 12 114 34.390625 114 62 Z M 114 62 "/>
<path style=" stroke:none;fill-rule:nonzero;fill:rgb(100%,100%,100%);fill-opacity:1;" d="M 62 56 L 66 56 C 68.210938 56 70 57.789062 70 60 L 70 82 C 70 84.210938 68.210938 86 66 86 L 62 86 C 59.789062 86 58 84.210938 58 82 L 58 60 C 58 57.789062 59.789062 56 62 56 Z M 70 44 C 70 47.316406 67.316406 50 64 50 C 60.683594 50 58 47.316406 58 44 C 58 40.683594 60.683594 38 64 38 C 67.316406 38 70 40.683594 70 44 Z M 70 44 "/>
</g>
</svg>
